M48
;GenerationSoftware,Autodesk,EAGLE,9.6.2*%
;CreationDate,2024-04-25T19:39:59Z*%
FMAT,2
ICI,OFF
METRIC,TZ,000.000
T3C0.305
T2C1.016
T1C3.302
%
G90
M71
T1
X28448Y48768
X2540Y2540
X2540Y22860
X22860Y22860
X22860Y2540
X28448Y2540
X28448Y22860
X48768Y22860
X48768Y2540
X54356Y2540
X54356Y22860
X74676Y22860
X74676Y2540
X80264Y2540
X80264Y22860
X100584Y22860
X100584Y2540
X106172Y2540
X106172Y22860
X126492Y22860
X126492Y2540
X132080Y2540
X132080Y22860
X152400Y22860
X152400Y2540
X2540Y28448
X2540Y48768
X22860Y48768
X22860Y28448
X28448Y28448
X74676Y54356
X48768Y48768
X48768Y28448
X54356Y28448
X54356Y48768
X74676Y48768
X74676Y28448
X80264Y28448
X80264Y48768
X100584Y48768
X100584Y28448
X106172Y28448
X106172Y48768
X126492Y48768
X126492Y28448
X132080Y28448
X132080Y48768
X152400Y48768
X152400Y28448
X2540Y54356
X2540Y74676
X22860Y74676
X22860Y54356
X28448Y54356
X28448Y74676
X48768Y74676
X48768Y54356
X54356Y54356
X54356Y74676
X74676Y74676
X152400Y80264
X80264Y54356
X80264Y74676
X100584Y74676
X100584Y54356
X106172Y54356
X106172Y74676
X126492Y74676
X126492Y54356
X132080Y54356
X132080Y74676
X152400Y74676
X152400Y54356
X2540Y80264
X2540Y100584
X22860Y100584
X22860Y80264
X28448Y80264
X28448Y100584
X48768Y100584
X48768Y80264
X54356Y80264
X54356Y100584
X74676Y100584
X74676Y80264
X80264Y80264
X80264Y100584
X100584Y100584
X100584Y80264
X106172Y80264
X106172Y100584
X126492Y100584
X126492Y80264
X132080Y80264
X132080Y100584
X152400Y100584
T2
X148590Y78994
X6350Y1270
X8890Y1270
X11430Y1270
X13970Y1270
X16510Y1270
X19050Y1270
X32258Y1270
X34798Y1270
X37338Y1270
X39878Y1270
X42418Y1270
X44958Y1270
X58166Y1270
X60706Y1270
X63246Y1270
X65786Y1270
X68326Y1270
X70866Y1270
X84074Y1270
X86614Y1270
X89154Y1270
X91694Y1270
X94234Y1270
X96774Y1270
X109982Y1270
X112522Y1270
X115062Y1270
X117602Y1270
X120142Y1270
X122682Y1270
X135890Y1270
X138430Y1270
X140970Y1270
X143510Y1270
X146050Y1270
X148590Y1270
X6350Y27178
X8890Y27178
X11430Y27178
X13970Y27178
X16510Y27178
X19050Y27178
X32258Y27178
X34798Y27178
X37338Y27178
X39878Y27178
X42418Y27178
X44958Y27178
X58166Y27178
X60706Y27178
X63246Y27178
X65786Y27178
X68326Y27178
X70866Y27178
X84074Y27178
X86614Y27178
X89154Y27178
X91694Y27178
X94234Y27178
X96774Y27178
X109982Y27178
X112522Y27178
X115062Y27178
X117602Y27178
X120142Y27178
X122682Y27178
X135890Y27178
X138430Y27178
X140970Y27178
X143510Y27178
X146050Y27178
X148590Y27178
X6350Y53086
X8890Y53086
X11430Y53086
X13970Y53086
X16510Y53086
X19050Y53086
X32258Y53086
X34798Y53086
X37338Y53086
X39878Y53086
X42418Y53086
X44958Y53086
X58166Y53086
X60706Y53086
X63246Y53086
X65786Y53086
X68326Y53086
X70866Y53086
X84074Y53086
X86614Y53086
X89154Y53086
X91694Y53086
X94234Y53086
X96774Y53086
X109982Y53086
X112522Y53086
X115062Y53086
X117602Y53086
X120142Y53086
X122682Y53086
X135890Y53086
X138430Y53086
X140970Y53086
X143510Y53086
X146050Y53086
X148590Y53086
X6350Y78994
X8890Y78994
X11430Y78994
X13970Y78994
X16510Y78994
X19050Y78994
X32258Y78994
X34798Y78994
X37338Y78994
X39878Y78994
X42418Y78994
X44958Y78994
X58166Y78994
X60706Y78994
X63246Y78994
X65786Y78994
X68326Y78994
X70866Y78994
X84074Y78994
X86614Y78994
X89154Y78994
X91694Y78994
X94234Y78994
X96774Y78994
X109982Y78994
X112522Y78994
X115062Y78994
X117602Y78994
X120142Y78994
X122682Y78994
X135890Y78994
X138430Y78994
X140970Y78994
X143510Y78994
X146050Y78994
T3
X102489Y4445
X78359Y4445
X102489Y12700
X78359Y12700
X78359Y20955
X82169Y24765
X90424Y24765
X90424Y3810
X90424Y5842
X88036Y18034
X85344Y3810
X85979Y22479
X84074Y21590
X85983Y12958
X80899Y13208
X88257Y18974
X93548Y19787
X100584Y17145
X94031Y14605
X94234Y11430
X89281Y14732
X90043Y15240
X94234Y12548
X94234Y13513
X80899Y11049
X99949Y11152
X96771Y19812
X80899Y12065
X99314Y12057
X96774Y20828
X88138Y17145
X87884Y24130
X91872Y19710
X91059Y20320
X90424Y23495
X91757Y15313
X94996Y11811
X94590Y17475
X93904Y18009
X85471Y19290
X86297Y9982
X82804Y19050
X87122Y7239
X81026Y19558
X114681Y12192
X112725Y13081
X108077Y15113
X108077Y9652
X106807Y14224
X112217Y15519
X112090Y14249
X114427Y9398
X109093Y17780
X111912Y17678
X118085Y11125
X123952Y10160
X121412Y7620
X121412Y10160
X121412Y3810
X123952Y6350
X121412Y17780
X126492Y14097
X121793Y19304
X124460Y19558
X115062Y20599
X108077Y19685
X118262Y20599
X113792Y6350
X124587Y24765
X128397Y20955
X124587Y635
X128397Y4445
X104267Y4445
X128397Y12700
X104267Y12700
X104267Y20955
X108077Y24765
X116332Y24765
X116332Y3810
X116332Y5842
X113944Y18034
X111252Y3810
X111887Y22479
X109982Y21590
X111891Y12958
X106807Y13208
X114165Y18974
X119456Y19787
X126492Y17145
X119939Y14605
X120142Y11430
X115189Y14732
X115951Y15240
X120142Y12548
X120142Y13513
X106807Y11049
X125857Y11152
X122679Y19812
X106807Y12065
X125222Y12057
X122682Y20828
X114046Y17145
X113792Y24130
X117780Y19710
X116967Y20320
X116332Y23495
X117665Y15313
X120904Y11811
X120498Y17475
X119812Y18009
X111379Y19290
X112204Y9982
X108712Y19050
X113030Y7239
X106934Y19558
X140589Y12192
X138633Y13081
X133985Y15113
X133985Y9652
X132715Y14224
X138125Y15519
X137998Y14249
X140335Y9398
X135001Y17780
X137820Y17678
X143993Y11125
X149860Y10160
X147320Y7620
X147320Y10160
X147320Y3810
X149860Y6350
X147320Y17780
X152400Y14097
X147701Y19304
X150368Y19558
X140970Y20599
X133985Y19685
X144170Y20599
X139700Y6350
X150495Y24765
X154305Y20955
X150495Y635
X154305Y4445
X130175Y4445
X154305Y12700
X130175Y12700
X130175Y20955
X133985Y24765
X142240Y24765
X142240Y3810
X142240Y5842
X139852Y18034
X137160Y3810
X137795Y22479
X135890Y21590
X137799Y12958
X132715Y13208
X140073Y18974
X145364Y19787
X152400Y17145
X145847Y14605
X146050Y11430
X141097Y14732
X141859Y15240
X146050Y12548
X146050Y13513
X132715Y11049
X151765Y11152
X148587Y19812
X132715Y12065
X151130Y12057
X148590Y20828
X139954Y17145
X139700Y24130
X143688Y19710
X142875Y20320
X142240Y23495
X143574Y15313
X146812Y11811
X146406Y17475
X145720Y18009
X137287Y19290
X138113Y9982
X134620Y19050
X138938Y7239
X132842Y19558
X11049Y38100
X9093Y38989
X4445Y41021
X4445Y35560
X3175Y40132
X8585Y41427
X8458Y40157
X10795Y35306
X5461Y43688
X8280Y43586
X14453Y37033
X20320Y36068
X17780Y33528
X17780Y36068
X17780Y29718
X20320Y32258
X17780Y43688
X22860Y40005
X18161Y45212
X20828Y45466
X11430Y46507
X4445Y45593
X14630Y46507
X10160Y32258
X20955Y50673
X24765Y46863
X20955Y26543
X24765Y30353
X635Y30353
X24765Y38608
X635Y38608
X635Y46863
X4445Y50673
X12700Y50673
X12700Y29718
X12700Y31750
X10312Y43942
X7620Y29718
X8255Y48387
X6350Y47498
X8259Y38866
X3175Y39116
X10533Y44882
X15824Y45695
X22860Y43053
X16307Y40513
X16510Y37338
X11557Y40640
X12319Y41148
X16510Y38456
X16510Y39421
X3175Y36957
X22225Y37060
X19047Y45720
X3175Y37973
X21590Y37965
X19050Y46736
X10414Y43053
X10160Y50038
X14148Y45618
X13335Y46228
X12700Y49403
X14033Y41221
X17272Y37719
X16866Y43383
X16180Y43917
X7747Y45198
X8573Y35890
X5080Y44958
X9398Y33147
X3302Y45466
X36957Y38100
X35001Y38989
X30353Y41021
X30353Y35560
X29083Y40132
X34493Y41427
X34366Y40157
X36703Y35306
X31369Y43688
X34188Y43586
X40361Y37033
X46228Y36068
X43688Y33528
X43688Y36068
X43688Y29718
X46228Y32258
X43688Y43688
X48768Y40005
X44069Y45212
X46736Y45466
X37338Y46507
X30353Y45593
X40538Y46507
X36068Y32258
X46863Y50673
X50673Y46863
X46863Y26543
X50673Y30353
X26543Y30353
X50673Y38608
X26543Y38608
X26543Y46863
X30353Y50673
X38608Y50673
X38608Y29718
X38608Y31750
X36220Y43942
X33528Y29718
X34163Y48387
X32258Y47498
X34167Y38866
X29083Y39116
X36441Y44882
X41732Y45695
X48768Y43053
X42215Y40513
X42418Y37338
X37465Y40640
X38227Y41148
X42418Y38456
X42418Y39421
X29083Y36957
X48133Y37060
X44955Y45720
X29083Y37973
X47498Y37965
X44958Y46736
X36322Y43053
X36068Y50038
X40056Y45618
X39243Y46228
X38608Y49403
X39942Y41221
X43180Y37719
X42774Y43383
X42088Y43917
X33655Y45198
X34481Y35890
X30988Y44958
X35306Y33147
X29210Y45466
X62865Y38100
X60909Y38989
X56261Y41021
X56261Y35560
X54991Y40132
X60401Y41427
X60274Y40157
X62611Y35306
X57277Y43688
X60096Y43586
X66269Y37033
X72136Y36068
X69596Y33528
X69596Y36068
X69596Y29718
X72136Y32258
X69596Y43688
X74676Y40005
X69977Y45212
X72644Y45466
X63246Y46507
X56261Y45593
X66446Y46507
X61976Y32258
X72771Y50673
X76581Y46863
X72771Y26543
X76581Y30353
X52451Y30353
X76581Y38608
X52451Y38608
X52451Y46863
X56261Y50673
X64516Y50673
X64516Y29718
X64516Y31750
X62128Y43942
X59436Y29718
X60071Y48387
X58166Y47498
X60075Y38866
X54991Y39116
X62349Y44882
X67640Y45695
X74676Y43053
X68123Y40513
X68326Y37338
X63373Y40640
X64135Y41148
X68326Y38456
X68326Y39421
X54991Y36957
X74041Y37060
X70863Y45720
X54991Y37973
X73406Y37965
X70866Y46736
X62230Y43053
X61976Y50038
X65964Y45618
X65151Y46228
X64516Y49403
X65850Y41221
X69088Y37719
X68682Y43383
X67996Y43917
X59563Y45198
X60388Y35890
X56896Y44958
X61214Y33147
X55118Y45466
X88773Y38100
X86817Y38989
X82169Y41021
X82169Y35560
X80899Y40132
X86309Y41427
X86182Y40157
X88519Y35306
X83185Y43688
X86004Y43586
X92177Y37033
X98044Y36068
X95504Y33528
X95504Y36068
X95504Y29718
X98044Y32258
X95504Y43688
X100584Y40005
X95885Y45212
X98552Y45466
X89154Y46507
X82169Y45593
X92354Y46507
X87884Y32258
X98679Y50673
X102489Y46863
X98679Y26543
X102489Y30353
X78359Y30353
X102489Y38608
X78359Y38608
X78359Y46863
X82169Y50673
X90424Y50673
X90424Y29718
X90424Y31750
X88036Y43942
X85344Y29718
X85979Y48387
X84074Y47498
X85983Y38866
X80899Y39116
X88257Y44882
X93548Y45695
X100584Y43053
X94031Y40513
X94234Y37338
X89281Y40640
X90043Y41148
X94234Y38456
X94234Y39421
X80899Y36957
X99949Y37060
X96771Y45720
X80899Y37973
X99314Y37965
X96774Y46736
X88138Y43053
X87884Y50038
X91872Y45618
X91059Y46228
X90424Y49403
X91757Y41221
X94996Y37719
X94590Y43383
X93904Y43917
X85471Y45198
X86297Y35890
X82804Y44958
X87122Y33147
X81026Y45466
X114681Y38100
X112725Y38989
X108077Y41021
X108077Y35560
X106807Y40132
X112217Y41427
X112090Y40157
X114427Y35306
X109093Y43688
X111912Y43586
X118085Y37033
X123952Y36068
X121412Y33528
X121412Y36068
X121412Y29718
X123952Y32258
X121412Y43688
X126492Y40005
X121793Y45212
X124460Y45466
X115062Y46507
X108077Y45593
X118262Y46507
X113792Y32258
X124587Y50673
X128397Y46863
X124587Y26543
X128397Y30353
X104267Y30353
X128397Y38608
X104267Y38608
X104267Y46863
X108077Y50673
X116332Y50673
X116332Y29718
X116332Y31750
X113944Y43942
X111252Y29718
X111887Y48387
X109982Y47498
X111891Y38866
X106807Y39116
X114165Y44882
X119456Y45695
X126492Y43053
X119939Y40513
X120142Y37338
X115189Y40640
X115951Y41148
X120142Y38456
X120142Y39421
X106807Y36957
X125857Y37060
X122679Y45720
X106807Y37973
X125222Y37965
X122682Y46736
X114046Y43053
X113792Y50038
X117780Y45618
X116967Y46228
X116332Y49403
X117665Y41221
X120904Y37719
X120498Y43383
X119812Y43917
X111379Y45198
X112204Y35890
X108712Y44958
X113030Y33147
X106934Y45466
X140589Y38100
X138633Y38989
X133985Y41021
X133985Y35560
X132715Y40132
X138125Y41427
X137998Y40157
X140335Y35306
X135001Y43688
X137820Y43586
X143993Y37033
X149860Y36068
X147320Y33528
X147320Y36068
X147320Y29718
X149860Y32258
X147320Y43688
X152400Y40005
X147701Y45212
X150368Y45466
X140970Y46507
X133985Y45593
X144170Y46507
X139700Y32258
X150495Y50673
X154305Y46863
X150495Y26543
X154305Y30353
X130175Y30353
X154305Y38608
X130175Y38608
X130175Y46863
X133985Y50673
X142240Y50673
X142240Y29718
X142240Y31750
X139852Y43942
X137160Y29718
X137795Y48387
X135890Y47498
X137799Y38866
X132715Y39116
X140073Y44882
X145364Y45695
X152400Y43053
X145847Y40513
X146050Y37338
X141097Y40640
X141859Y41148
X146050Y38456
X146050Y39421
X132715Y36957
X151765Y37060
X148587Y45720
X132715Y37973
X151130Y37965
X148590Y46736
X139954Y43053
X139700Y50038
X143688Y45618
X142875Y46228
X142240Y49403
X143574Y41221
X146812Y37719
X146406Y43383
X145720Y43917
X137287Y45198
X138113Y35890
X134620Y44958
X138938Y33147
X132842Y45466
X11049Y64008
X9093Y64897
X4445Y66929
X4445Y61468
X3175Y66040
X8585Y67335
X8458Y66065
X10795Y61214
X5461Y69596
X8280Y69494
X14453Y62941
X20320Y61976
X17780Y59436
X17780Y61976
X17780Y55626
X20320Y58166
X17780Y69596
X22860Y65913
X18161Y71120
X20828Y71374
X11430Y72415
X4445Y71501
X14630Y72415
X10160Y58166
X20955Y76581
X24765Y72771
X20955Y52451
X24765Y56261
X635Y56261
X24765Y64516
X635Y64516
X635Y72771
X4445Y76581
X12700Y76581
X12700Y55626
X12700Y57658
X10312Y69850
X7620Y55626
X8255Y74295
X6350Y73406
X8259Y64774
X3175Y65024
X10533Y70790
X15824Y71603
X22860Y68961
X16307Y66421
X16510Y63246
X11557Y66548
X12319Y67056
X16510Y64364
X16510Y65329
X3175Y62865
X22225Y62968
X19047Y71628
X3175Y63881
X21590Y63873
X19050Y72644
X10414Y68961
X10160Y75946
X14148Y71526
X13335Y72136
X12700Y75311
X14033Y67129
X17272Y63627
X16866Y69291
X16180Y69825
X7747Y71106
X8573Y61798
X5080Y70866
X9398Y59055
X3302Y71374
X36957Y64008
X35001Y64897
X30353Y66929
X30353Y61468
X29083Y66040
X34493Y67335
X34366Y66065
X36703Y61214
X31369Y69596
X34188Y69494
X40361Y62941
X46228Y61976
X43688Y59436
X43688Y61976
X43688Y55626
X46228Y58166
X43688Y69596
X48768Y65913
X44069Y71120
X46736Y71374
X37338Y72415
X30353Y71501
X40538Y72415
X36068Y58166
X46863Y76581
X50673Y72771
X46863Y52451
X50673Y56261
X26543Y56261
X50673Y64516
X26543Y64516
X26543Y72771
X30353Y76581
X38608Y76581
X38608Y55626
X38608Y57658
X36220Y69850
X33528Y55626
X34163Y74295
X32258Y73406
X34167Y64774
X29083Y65024
X36441Y70790
X41732Y71603
X48768Y68961
X42215Y66421
X42418Y63246
X37465Y66548
X38227Y67056
X42418Y64364
X42418Y65329
X29083Y62865
X48133Y62968
X44955Y71628
X29083Y63881
X47498Y63873
X44958Y72644
X36322Y68961
X36068Y75946
X40056Y71526
X39243Y72136
X38608Y75311
X39942Y67129
X43180Y63627
X42774Y69291
X42088Y69825
X33655Y71106
X34481Y61798
X30988Y70866
X35306Y59055
X29210Y71374
X62865Y64008
X60909Y64897
X56261Y66929
X56261Y61468
X54991Y66040
X60401Y67335
X60274Y66065
X62611Y61214
X57277Y69596
X60096Y69494
X66269Y62941
X72136Y61976
X69596Y59436
X69596Y61976
X69596Y55626
X72136Y58166
X69596Y69596
X74676Y65913
X69977Y71120
X72644Y71374
X63246Y72415
X56261Y71501
X66446Y72415
X61976Y58166
X72771Y76581
X76581Y72771
X72771Y52451
X76581Y56261
X52451Y56261
X76581Y64516
X52451Y64516
X52451Y72771
X56261Y76581
X64516Y76581
X64516Y55626
X64516Y57658
X62128Y69850
X59436Y55626
X60071Y74295
X58166Y73406
X60075Y64774
X54991Y65024
X62349Y70790
X67640Y71603
X74676Y68961
X68123Y66421
X68326Y63246
X63373Y66548
X64135Y67056
X68326Y64364
X68326Y65329
X54991Y62865
X74041Y62968
X70863Y71628
X54991Y63881
X73406Y63873
X70866Y72644
X62230Y68961
X61976Y75946
X65964Y71526
X65151Y72136
X64516Y75311
X65850Y67129
X69088Y63627
X68682Y69291
X67996Y69825
X59563Y71106
X60388Y61798
X56896Y70866
X61214Y59055
X55118Y71374
X88773Y64008
X86817Y64897
X82169Y66929
X82169Y61468
X80899Y66040
X86309Y67335
X86182Y66065
X88519Y61214
X83185Y69596
X86004Y69494
X92177Y62941
X98044Y61976
X95504Y59436
X95504Y61976
X95504Y55626
X98044Y58166
X95504Y69596
X100584Y65913
X95885Y71120
X98552Y71374
X89154Y72415
X82169Y71501
X92354Y72415
X87884Y58166
X98679Y76581
X102489Y72771
X98679Y52451
X102489Y56261
X78359Y56261
X102489Y64516
X78359Y64516
X78359Y72771
X82169Y76581
X90424Y76581
X90424Y55626
X90424Y57658
X88036Y69850
X85344Y55626
X85979Y74295
X84074Y73406
X85983Y64774
X80899Y65024
X88257Y70790
X93548Y71603
X100584Y68961
X94031Y66421
X94234Y63246
X89281Y66548
X90043Y67056
X94234Y64364
X94234Y65329
X80899Y62865
X99949Y62968
X96771Y71628
X80899Y63881
X99314Y63873
X96774Y72644
X88138Y68961
X87884Y75946
X91872Y71526
X91059Y72136
X90424Y75311
X91757Y67129
X94996Y63627
X94590Y69291
X93904Y69825
X85471Y71106
X86297Y61798
X82804Y70866
X87122Y59055
X81026Y71374
X114681Y64008
X112725Y64897
X108077Y66929
X108077Y61468
X106807Y66040
X112217Y67335
X112090Y66065
X114427Y61214
X109093Y69596
X111912Y69494
X118085Y62941
X123952Y61976
X121412Y59436
X121412Y61976
X121412Y55626
X123952Y58166
X121412Y69596
X126492Y65913
X121793Y71120
X124460Y71374
X115062Y72415
X108077Y71501
X118262Y72415
X113792Y58166
X124587Y76581
X128397Y72771
X124587Y52451
X128397Y56261
X104267Y56261
X128397Y64516
X104267Y64516
X104267Y72771
X108077Y76581
X116332Y76581
X116332Y55626
X116332Y57658
X113944Y69850
X111252Y55626
X111887Y74295
X109982Y73406
X111891Y64774
X106807Y65024
X114165Y70790
X119456Y71603
X126492Y68961
X119939Y66421
X120142Y63246
X115189Y66548
X115951Y67056
X120142Y64364
X120142Y65329
X106807Y62865
X125857Y62968
X122679Y71628
X106807Y63881
X125222Y63873
X122682Y72644
X114046Y68961
X113792Y75946
X117780Y71526
X116967Y72136
X116332Y75311
X117665Y67129
X120904Y63627
X120498Y69291
X119812Y69825
X111379Y71106
X112204Y61798
X108712Y70866
X113030Y59055
X106934Y71374
X140589Y64008
X138633Y64897
X133985Y66929
X133985Y61468
X132715Y66040
X138125Y67335
X137998Y66065
X140335Y61214
X135001Y69596
X137820Y69494
X143993Y62941
X149860Y61976
X147320Y59436
X147320Y61976
X147320Y55626
X149860Y58166
X147320Y69596
X152400Y65913
X147701Y71120
X150368Y71374
X140970Y72415
X133985Y71501
X144170Y72415
X139700Y58166
X150495Y76581
X154305Y72771
X150495Y52451
X154305Y56261
X130175Y56261
X154305Y64516
X130175Y64516
X130175Y72771
X133985Y76581
X142240Y76581
X142240Y55626
X142240Y57658
X139852Y69850
X137160Y55626
X137795Y74295
X135890Y73406
X137799Y64774
X132715Y65024
X140073Y70790
X145364Y71603
X152400Y68961
X145847Y66421
X146050Y63246
X141097Y66548
X141859Y67056
X146050Y64364
X146050Y65329
X132715Y62865
X151765Y62968
X148587Y71628
X132715Y63881
X151130Y63873
X148590Y72644
X139954Y68961
X139700Y75946
X143688Y71526
X142875Y72136
X142240Y75311
X143574Y67129
X146812Y63627
X146406Y69291
X145720Y69825
X137287Y71106
X138113Y61798
X134620Y70866
X138938Y59055
X132842Y71374
X11049Y89916
X9093Y90805
X4445Y92837
X4445Y87376
X3175Y91948
X8585Y93243
X8458Y91973
X10795Y87122
X5461Y95504
X8280Y95402
X14453Y88849
X20320Y87884
X17780Y85344
X17780Y87884
X17780Y81534
X20320Y84074
X17780Y95504
X22860Y91821
X18161Y97028
X20828Y97282
X11430Y98323
X4445Y97409
X14630Y98323
X10160Y84074
X20955Y102489
X24765Y98679
X20955Y78359
X24765Y82169
X635Y82169
X24765Y90424
X635Y90424
X635Y98679
X4445Y102489
X12700Y102489
X12700Y81534
X12700Y83566
X10312Y95758
X7620Y81534
X8255Y100203
X6350Y99314
X8259Y90682
X3175Y90932
X10533Y96698
X15824Y97511
X22860Y94869
X16307Y92329
X16510Y89154
X11557Y92456
X12319Y92964
X16510Y90272
X16510Y91237
X3175Y88773
X22225Y88876
X19047Y97536
X3175Y89789
X21590Y89781
X19050Y98552
X10414Y94869
X10160Y101854
X14148Y97434
X13335Y98044
X12700Y101219
X14033Y93037
X17272Y89535
X16866Y95199
X16180Y95733
X7747Y97014
X8573Y87706
X5080Y96774
X9398Y84963
X3302Y97282
X36957Y89916
X35001Y90805
X30353Y92837
X30353Y87376
X29083Y91948
X34493Y93243
X34366Y91973
X36703Y87122
X31369Y95504
X34188Y95402
X40361Y88849
X46228Y87884
X43688Y85344
X43688Y87884
X43688Y81534
X46228Y84074
X43688Y95504
X48768Y91821
X44069Y97028
X46736Y97282
X37338Y98323
X30353Y97409
X40538Y98323
X36068Y84074
X46863Y102489
X50673Y98679
X46863Y78359
X50673Y82169
X26543Y82169
X50673Y90424
X26543Y90424
X26543Y98679
X30353Y102489
X38608Y102489
X38608Y81534
X38608Y83566
X36220Y95758
X33528Y81534
X34163Y100203
X32258Y99314
X34167Y90682
X29083Y90932
X36441Y96698
X41732Y97511
X48768Y94869
X42215Y92329
X42418Y89154
X37465Y92456
X38227Y92964
X42418Y90272
X42418Y91237
X29083Y88773
X48133Y88876
X44955Y97536
X29083Y89789
X47498Y89781
X44958Y98552
X36322Y94869
X36068Y101854
X40056Y97434
X39243Y98044
X38608Y101219
X39942Y93037
X43180Y89535
X42774Y95199
X42088Y95733
X33655Y97014
X34481Y87706
X30988Y96774
X35306Y84963
X29210Y97282
X62865Y89916
X60909Y90805
X56261Y92837
X56261Y87376
X54991Y91948
X60401Y93243
X60274Y91973
X62611Y87122
X57277Y95504
X60096Y95402
X66269Y88849
X72136Y87884
X69596Y85344
X69596Y87884
X69596Y81534
X72136Y84074
X69596Y95504
X74676Y91821
X69977Y97028
X72644Y97282
X63246Y98323
X56261Y97409
X66446Y98323
X61976Y84074
X72771Y102489
X76581Y98679
X72771Y78359
X76581Y82169
X52451Y82169
X76581Y90424
X52451Y90424
X52451Y98679
X56261Y102489
X64516Y102489
X64516Y81534
X64516Y83566
X62128Y95758
X11049Y12192
X60071Y100203
X58166Y99314
X60075Y90682
X54991Y90932
X62349Y96698
X67640Y97511
X74676Y94869
X68123Y92329
X68326Y89154
X63373Y92456
X64135Y92964
X68326Y90272
X68326Y91237
X54991Y88773
X74041Y88876
X70863Y97536
X54991Y89789
X73406Y89781
X70866Y98552
X62230Y94869
X61976Y101854
X65964Y97434
X65151Y98044
X64516Y101219
X65850Y93037
X69088Y89535
X68682Y95199
X67996Y95733
X59563Y97014
X60388Y87706
X56896Y96774
X61214Y84963
X55118Y97282
X88773Y89916
X86817Y90805
X82169Y92837
X82169Y87376
X80899Y91948
X86309Y93243
X86182Y91973
X88519Y87122
X83185Y95504
X86004Y95402
X92177Y88849
X98044Y87884
X95504Y85344
X95504Y87884
X95504Y81534
X98044Y84074
X95504Y95504
X100584Y91821
X95885Y97028
X98552Y97282
X89154Y98323
X82169Y97409
X92354Y98323
X87884Y84074
X98679Y102489
X102489Y98679
X98679Y78359
X102489Y82169
X78359Y82169
X102489Y90424
X78359Y90424
X78359Y98679
X82169Y102489
X90424Y102489
X90424Y81534
X90424Y83566
X88036Y95758
X85344Y81534
X85979Y100203
X84074Y99314
X85983Y90682
X80899Y90932
X88257Y96698
X93548Y97511
X100584Y94869
X94031Y92329
X94234Y89154
X89281Y92456
X90043Y92964
X94234Y90272
X94234Y91237
X80899Y88773
X99949Y88876
X96771Y97536
X80899Y89789
X99314Y89781
X96774Y98552
X88138Y94869
X87884Y101854
X91872Y97434
X91059Y98044
X90424Y101219
X91757Y93037
X94996Y89535
X94590Y95199
X93904Y95733
X85471Y97014
X86297Y87706
X82804Y96774
X87122Y84963
X81026Y97282
X114681Y89916
X112725Y90805
X108077Y92837
X108077Y87376
X106807Y91948
X112217Y93243
X112090Y91973
X114427Y87122
X109093Y95504
X111912Y95402
X118085Y88849
X123952Y87884
X121412Y85344
X121412Y87884
X121412Y81534
X123952Y84074
X121412Y95504
X126492Y91821
X121793Y97028
X124460Y97282
X115062Y98323
X108077Y97409
X118262Y98323
X113792Y84074
X124587Y102489
X128397Y98679
X124587Y78359
X128397Y82169
X104267Y82169
X128397Y90424
X104267Y90424
X104267Y98679
X108077Y102489
X116332Y102489
X116332Y81534
X116332Y83566
X113944Y95758
X111252Y81534
X111887Y100203
X109982Y99314
X111891Y90682
X106807Y90932
X114165Y96698
X119456Y97511
X126492Y94869
X119939Y92329
X120142Y89154
X115189Y92456
X115951Y92964
X120142Y90272
X120142Y91237
X106807Y88773
X125857Y88876
X122679Y97536
X106807Y89789
X125222Y89781
X122682Y98552
X114046Y94869
X113792Y101854
X117780Y97434
X116967Y98044
X116332Y101219
X117665Y93037
X120904Y89535
X120498Y95199
X119812Y95733
X111379Y97014
X112204Y87706
X108712Y96774
X113030Y84963
X106934Y97282
X140589Y89916
X138633Y90805
X133985Y92837
X133985Y87376
X132715Y91948
X138125Y93243
X137998Y91973
X140335Y87122
X135001Y95504
X137820Y95402
X143993Y88849
X149860Y87884
X147320Y85344
X147320Y87884
X147320Y81534
X149860Y84074
X147320Y95504
X152400Y91821
X147701Y97028
X150368Y97282
X140970Y98323
X133985Y97409
X144170Y98323
X139700Y84074
X150495Y102489
X154305Y98679
X150495Y78359
X154305Y82169
X130175Y82169
X154305Y90424
X130175Y90424
X130175Y98679
X133985Y102489
X142240Y102489
X142240Y81534
X142240Y83566
X139852Y95758
X137160Y81534
X137795Y100203
X135890Y99314
X137799Y90682
X132715Y90932
X140073Y96698
X145364Y97511
X152400Y94869
X145847Y92329
X146050Y89154
X141097Y92456
X141859Y92964
X146050Y90272
X146050Y91237
X132715Y88773
X151765Y88876
X148587Y97536
X132715Y89789
X151130Y89781
X148590Y98552
X139954Y94869
X139700Y101854
X143688Y97434
X142875Y98044
X142240Y101219
X143574Y93037
X146812Y89535
X146406Y95199
X145720Y95733
X137287Y97014
X59436Y81534
X134620Y96774
X138938Y84963
X132842Y97282
X9093Y13081
X4445Y15113
X4445Y9652
X3175Y14224
X8585Y15519
X8458Y14249
X10795Y9398
X5461Y17780
X8280Y17678
X14453Y11125
X20320Y10160
X17780Y7620
X17780Y10160
X17780Y3810
X20320Y6350
X17780Y17780
X22860Y14097
X18161Y19304
X20828Y19558
X11430Y20599
X4445Y19685
X14630Y20599
X10160Y6350
X20955Y24765
X24765Y20955
X20955Y635
X24765Y4445
X635Y4445
X24765Y12700
X635Y12700
X635Y20955
X4445Y24765
X12700Y24765
X12700Y3810
X12700Y5842
X10312Y18034
X7620Y3810
X8255Y22479
X6350Y21590
X8259Y12958
X3175Y13208
X10533Y18974
X15824Y19787
X22860Y17145
X16307Y14605
X16510Y11430
X11557Y14732
X12319Y15240
X16510Y12548
X16510Y13513
X3175Y11049
X22225Y11152
X19047Y19812
X3175Y12065
X21590Y12057
X19050Y20828
X10414Y17145
X10160Y24130
X14148Y19710
X13335Y20320
X12700Y23495
X14033Y15313
X17272Y11811
X16866Y17475
X16180Y18009
X7747Y19290
X8573Y9982
X5080Y19050
X9398Y7239
X3302Y19558
X36957Y12192
X35001Y13081
X30353Y15113
X30353Y9652
X29083Y14224
X34493Y15519
X34366Y14249
X36703Y9398
X31369Y17780
X34188Y17678
X40361Y11125
X46228Y10160
X43688Y7620
X43688Y10160
X43688Y3810
X46228Y6350
X43688Y17780
X48768Y14097
X44069Y19304
X46736Y19558
X37338Y20599
X30353Y19685
X40538Y20599
X36068Y6350
X46863Y24765
X50673Y20955
X46863Y635
X50673Y4445
X26543Y4445
X50673Y12700
X26543Y12700
X26543Y20955
X30353Y24765
X38608Y24765
X38608Y3810
X38608Y5842
X36220Y18034
X33528Y3810
X34163Y22479
X32258Y21590
X34167Y12958
X29083Y13208
X36441Y18974
X41732Y19787
X48768Y17145
X42215Y14605
X42418Y11430
X37465Y14732
X38227Y15240
X42418Y12548
X42418Y13513
X29083Y11049
X48133Y11152
X44955Y19812
X29083Y12065
X47498Y12057
X44958Y20828
X36322Y17145
X36068Y24130
X40056Y19710
X39243Y20320
X38608Y23495
X39942Y15313
X43180Y11811
X42774Y17475
X42088Y18009
X33655Y19290
X34481Y9982
X30988Y19050
X35306Y7239
X29210Y19558
X62865Y12192
X60909Y13081
X56261Y15113
X56261Y9652
X54991Y14224
X60401Y15519
X60274Y14249
X62611Y9398
X57277Y17780
X60096Y17678
X66269Y11125
X72136Y10160
X69596Y7620
X69596Y10160
X69596Y3810
X72136Y6350
X69596Y17780
X74676Y14097
X69977Y19304
X72644Y19558
X63246Y20599
X56261Y19685
X66446Y20599
X61976Y6350
X72771Y24765
X76581Y20955
X72771Y635
X76581Y4445
X52451Y4445
X76581Y12700
X52451Y12700
X52451Y20955
X56261Y24765
X64516Y24765
X64516Y3810
X64516Y5842
X62128Y18034
X59436Y3810
X60071Y22479
X58166Y21590
X60075Y12958
X54991Y13208
X62349Y18974
X67640Y19787
X74676Y17145
X68123Y14605
X68326Y11430
X63373Y14732
X64135Y15240
X68326Y12548
X68326Y13513
X54991Y11049
X74041Y11152
X70863Y19812
X54991Y12065
X73406Y12057
X70866Y20828
X62230Y17145
X61976Y24130
X65964Y19710
X65151Y20320
X64516Y23495
X65850Y15313
X69088Y11811
X68682Y17475
X67996Y18009
X59563Y19290
X60388Y9982
X56896Y19050
X61214Y7239
X55118Y19558
X88773Y12192
X86817Y13081
X82169Y15113
X82169Y9652
X80899Y14224
X86309Y15519
X86182Y14249
X88519Y9398
X83185Y17780
X86004Y17678
X92177Y11125
X98044Y10160
X95504Y7620
X95504Y10160
X95504Y3810
X98044Y6350
X95504Y17780
X100584Y14097
X95885Y19304
X98552Y19558
X89154Y20599
X82169Y19685
X92354Y20599
X87884Y6350
X98679Y24765
X102489Y20955
X98679Y635
X138113Y87706
M30